<svg width="18" height="19" viewBox="0 0 18 19" fill="none" xmlns="http://www.w3.org/2000/svg">
<path d="M4.0957 18.0749V6.32649H0.417481V18.0749H4.0957ZM2.23682 4.7548C3.42334 4.7548 4.37256 3.77249 4.37256 2.59373C4.37256 1.45425 3.42334 0.51123 2.23682 0.51123C1.08984 0.51123 0.140625 1.45425 0.140625 2.59373C0.140625 3.77249 1.08984 4.7548 2.23682 4.7548ZM17.8198 18.0749H17.8594V11.631C17.8594 8.48756 17.1475 6.05145 13.4297 6.05145C11.6499 6.05145 10.4634 7.03375 9.94922 7.93748H9.90966V6.32649H6.38965V18.0749H10.0679V12.2596C10.0679 10.7272 10.3447 9.27341 12.2432 9.27341C14.1416 9.27341 14.1812 11.0023 14.1812 12.3775V18.0749H17.8198Z" fill="#292F36"/>
</svg>
