<svg width="18" height="19" viewBox="0 0 18 19" fill="none" xmlns="http://www.w3.org/2000/svg">
<path d="M9 5.04498C6.48529 5.04498 4.48138 7.08187 4.48138 9.54964C4.48138 12.0566 6.48529 14.0543 9 14.0543C11.4754 14.0543 13.5186 12.0566 13.5186 9.54964C13.5186 7.08187 11.4754 5.04498 9 5.04498ZM9 12.4874C7.38902 12.4874 6.05308 11.1948 6.05308 9.54964C6.05308 7.94363 7.34972 6.65099 9 6.65099C10.611 6.65099 11.9076 7.94363 11.9076 9.54964C11.9076 11.1948 10.611 12.4874 9 12.4874ZM14.7367 4.88829C14.7367 4.30072 14.2652 3.83067 13.6758 3.83067C13.0864 3.83067 12.6149 4.30072 12.6149 4.88829C12.6149 5.47585 13.0864 5.94591 13.6758 5.94591C14.2652 5.94591 14.7367 5.47585 14.7367 4.88829ZM17.7229 5.94591C17.6443 4.53575 17.33 3.28228 16.3083 2.26384C15.2868 1.24539 14.0294 0.932021 12.6149 0.853679C11.1611 0.775336 6.79963 0.775336 5.34582 0.853679C3.93129 0.932021 2.71323 1.24539 1.65234 2.26384C0.63074 3.28228 0.316401 4.53575 0.237817 5.94591C0.159233 7.39523 0.159233 11.7432 0.237817 13.1926C0.316401 14.6027 0.63074 15.817 1.65234 16.8746C2.71323 17.893 3.93129 18.2064 5.34582 18.2848C6.79963 18.3631 11.1611 18.3631 12.6149 18.2848C14.0294 18.2064 15.2868 17.893 16.3083 16.8746C17.33 15.817 17.6443 14.6027 17.7229 13.1926C17.8015 11.7432 17.8015 7.39523 17.7229 5.94591ZM15.8368 14.7203C15.5618 15.5036 14.9331 16.0912 14.1865 16.4046C13.0079 16.8746 10.2573 16.7571 9 16.7571C7.70335 16.7571 4.95289 16.8746 3.81341 16.4046C3.02757 16.0912 2.43818 15.5036 2.12385 14.7203C1.65234 13.5843 1.77022 10.8423 1.77022 9.54964C1.77022 8.29617 1.65234 5.5542 2.12385 4.37907C2.43818 3.63482 3.02757 3.04725 3.81341 2.73389C4.95289 2.26384 7.70335 2.38134 9 2.38134C10.2573 2.38134 13.0079 2.26384 14.1865 2.73389C14.9331 3.00808 15.5226 3.63482 15.8368 4.37907C16.3083 5.5542 16.1905 8.29617 16.1905 9.54964C16.1905 10.8423 16.3083 13.5843 15.8368 14.7203Z" fill="#292F36"/>
</svg>
