<svg width="20" height="18" viewBox="0 0 20 18" fill="none" xmlns="http://www.w3.org/2000/svg">
<path d="M17.9297 4.51914C18.7109 3.88633 19.4141 3.12695 19.9609 2.24101C19.2578 2.57851 18.4376 2.83164 17.6172 2.91601C18.4766 2.36758 19.1016 1.52383 19.4141 0.469141C18.6328 0.975391 17.7343 1.35508 16.8359 1.56601C16.0547 0.680078 15 0.173828 13.8281 0.173828C11.5624 0.173828 9.72657 2.15664 9.72657 4.60351C9.72657 4.94101 9.76562 5.27851 9.84375 5.61601C6.44531 5.40508 3.39843 3.63321 1.36719 0.975391C1.01562 1.60821 0.820312 2.36758 0.820312 3.21133C0.820312 4.73008 1.52343 6.08008 2.65624 6.88164C1.99219 6.83945 1.32812 6.67071 0.78125 6.33321V6.37539C0.78125 8.52695 2.1875 10.2988 4.0625 10.7207C3.75 10.8051 3.35938 10.8895 3.00781 10.8895C2.73438 10.8895 2.5 10.8473 2.22657 10.8051C2.73438 12.5769 4.25781 13.8426 6.05469 13.8848C4.64843 15.066 2.89062 15.7832 0.976562 15.7832C0.625 15.7832 0.3125 15.741 0 15.6989C1.79688 16.9645 3.94531 17.6816 6.28907 17.6816C13.8281 17.6816 17.9297 10.9738 17.9297 5.10977C17.9297 4.89883 17.9297 4.73008 17.9297 4.51914Z" fill="#292F36"/>
</svg>
